<svg xmlns="http://www.w3.org/2000/svg" version="1.1" xmlns:xlink="http://www.w3.org/1999/xlink" width="512" height="512" x="0" y="0" viewBox="0 0 24 24" style="enable-background:new 0 0 512 512" xml:space="preserve" class=""><g><path fill="#ffffff" fill-rule="evenodd" d="M21.5 6.004h-20a.5.5 0 0 1 0-1h20a.5.5 0 0 1 0 1m-2 3h-16a.5.5 0 0 1 0-1h16a.5.5 0 0 1 0 1m-2 3h-12a.5.5 0 0 1 0-1h12a.5.5 0 0 1 0 1m-2 3h-8a.5.5 0 0 1 0-1h8a.5.5 0 0 1 0 1m-2 3h-4a.5.5 0 0 1 0-1h4a.5.5 0 0 1 0 1" opacity="1" data-original="#000000" class=""></path></g></svg>