<svg xmlns="http://www.w3.org/2000/svg" version="1.1" xmlns:xlink="http://www.w3.org/1999/xlink" width="512" height="512" x="0" y="0" viewBox="0 0 32 32" style="enable-background:new 0 0 512 512" xml:space="preserve" class=""><g><path d="M3.2 4.3h25.7c.7 0 1.2.5 1.2 1.2s-.5 1.2-1.2 1.2H3.2C2.6 6.7 2 6.1 2 5.5c0-.7.6-1.2 1.2-1.2zM3.2 14.8h25.7c.7 0 1.2.5 1.2 1.2s-.5 1.2-1.2 1.2H3.2c-.7 0-1.2-.5-1.2-1.2s.6-1.2 1.2-1.2zM3.2 25.3h25.7c.7 0 1.2.5 1.2 1.2s-.5 1.2-1.2 1.2H3.2c-.7 0-1.2-.5-1.2-1.2s.6-1.2 1.2-1.2z" fill="#000000" opacity="1" data-original="#000000" class=""></path></g></svg>